<?xml version="1.0" encoding="UTF-8" standalone="no"?>
<svg
   xmlns:dc="http://purl.org/dc/elements/1.1/"
   xmlns:cc="http://creativecommons.org/ns#"
   xmlns:rdf="http://www.w3.org/1999/02/22-rdf-syntax-ns#"
   xmlns:svg="http://www.w3.org/2000/svg"
   xmlns="http://www.w3.org/2000/svg"
   xmlns:sodipodi="http://sodipodi.sourceforge.net/DTD/sodipodi-0.dtd"
   xmlns:inkscape="http://www.inkscape.org/namespaces/inkscape"
   version="1.1"
   id="Capa_1"
   x="0px"
   y="0px"
   width="100px"
   height="100px"
   viewBox="0 0 100 100"
   style="enable-background:new 0 0 314.068 314.068;"
   xml:space="preserve"
   inkscape:version="0.91 r13725"
   sodipodi:docname="play.svg"><metadata
     id="metadata14"><rdf:RDF><cc:Work
         rdf:about=""><dc:format>image/svg+xml</dc:format><dc:type
           rdf:resource="http://purl.org/dc/dcmitype/StillImage" /></cc:Work></rdf:RDF></metadata><defs
     id="defs12" /><sodipodi:namedview
     pagecolor="#ffffff"
     bordercolor="#666666"
     borderopacity="1"
     objecttolerance="10"
     gridtolerance="10"
     guidetolerance="10"
     inkscape:pageopacity="0"
     inkscape:pageshadow="2"
     inkscape:window-width="1920"
     inkscape:window-height="1016"
     id="namedview10"
     showgrid="false"
     inkscape:zoom="9.44"
     inkscape:cx="58.557426"
     inkscape:cy="32.333107"
     inkscape:window-x="0"
     inkscape:window-y="27"
     inkscape:window-maximized="1"
     inkscape:current-layer="Capa_1" /><g
     id="g3"
     transform="matrix(0.31840209,0,0,0.31840585,-1.9223097e-5,-5.7429995e-4)"
     style="fill:#ffffff"><g
       id="play"
       style="fill:#ffffff"><g
         id="g6"
         style="fill:#ffffff"><path
           d="M 293.002,78.53 C 249.646,3.435 153.618,-22.296 78.529,21.068 3.434,64.418 -22.298,160.442 21.066,235.534 c 43.35,75.095 139.375,100.83 214.465,57.47 C 310.627,249.639 336.371,153.62 293.002,78.53 Z M 219.834,265.801 C 159.767,300.493 82.94,279.907 48.258,219.828 13.568,159.761 34.161,82.935 94.23,48.26 154.301,13.57 231.124,34.154 265.808,94.231 c 34.685,60.076 14.098,136.886 -45.974,171.57 z m -6.279,-115.149 -82.214,-47.949 c -7.492,-4.374 -13.535,-0.877 -13.493,7.789 l 0.421,95.174 c 0.038,8.664 6.155,12.191 13.669,7.851 l 81.585,-47.103 c 7.506,-4.332 7.522,-11.388 0.032,-15.762 z"
           id="path8"
           inkscape:connector-curvature="0"
           style="fill:#ffffff" /></g></g></g></svg>