<?xml version="1.0" encoding="UTF-8" standalone="no"?>
<svg
   xmlns:dc="http://purl.org/dc/elements/1.1/"
   xmlns:cc="http://creativecommons.org/ns#"
   xmlns:rdf="http://www.w3.org/1999/02/22-rdf-syntax-ns#"
   xmlns:svg="http://www.w3.org/2000/svg"
   xmlns="http://www.w3.org/2000/svg"
   xmlns:xlink="http://www.w3.org/1999/xlink"
   id="svg3355"
   height="470"
   width="470"
   version="1.1">
  <metadata
     id="metadata3396">
    <rdf:RDF>
      <cc:Work
         rdf:about="">
        <dc:format>image/svg+xml</dc:format>
        <dc:type
           rdf:resource="http://purl.org/dc/dcmitype/StillImage" />
        <dc:title></dc:title>
      </cc:Work>
    </rdf:RDF>
  </metadata>
  <desc
     id="desc3357">European flag</desc>
  <defs
     id="defs3359">
    <g
       id="s">
      <g
         id="c">
        <path
           transform="matrix(0.95105652,0.30901699,-0.30901699,0.95105652,0,-1)"
           d="M 0,0 0,1 0.5,1 Z"
           id="t" />
        <use
           height="100%"
           width="100%"
           y="0"
           x="0"
           id="use3364"
           transform="scale(-1,1)"
           xlink:href="#t" />
      </g>
      <g
         id="a">
        <use
           height="100%"
           width="100%"
           y="0"
           x="0"
           id="use3367"
           transform="matrix(0.30901699,0.95105652,-0.95105652,0.30901699,0,0)"
           xlink:href="#c" />
        <use
           height="100%"
           width="100%"
           y="0"
           x="0"
           id="use3369"
           transform="matrix(-0.80901699,0.58778525,-0.58778525,-0.80901699,0,0)"
           xlink:href="#c" />
      </g>
      <use
         height="100%"
         width="100%"
         y="0"
         x="0"
         id="use3371"
         transform="scale(-1,1)"
         xlink:href="#a" />
    </g>
  </defs>
  <g
     style="fill:#ffcc00"
     id="g3375"
     transform="matrix(30,0,0,30,234.9961,237.85938)">
    <circle
       r="7.8333335"
       cy="-0.095312499"
       cx="0.00013020834"
       id="path3404"
       style="fill:#109010;fill-opacity:1;image-rendering:auto" />
    <use
       height="100%"
       width="100%"
       x="0"
       id="use3377"
       y="-6"
       xlink:href="#s" />
    <use
       height="100%"
       width="100%"
       x="0"
       id="use3379"
       y="6"
       xlink:href="#s" />
    <g
       id="l">
      <use
         height="100%"
         width="100%"
         y="0"
         id="use3382"
         x="-6"
         xlink:href="#s" />
      <use
         height="100%"
         width="100%"
         y="0"
         x="0"
         id="use3384"
         transform="matrix(-0.80901699,-0.58778525,0.58778525,-0.80901699,-3,-5.1961524)"
         xlink:href="#s" />
      <use
         height="100%"
         width="100%"
         y="0"
         x="0"
         id="use3386"
         transform="matrix(-0.80901699,0.58778525,-0.58778525,-0.80901699,-5.1961524,-3)"
         xlink:href="#s" />
      <use
         height="100%"
         width="100%"
         y="0"
         x="0"
         id="use3388"
         transform="matrix(0.30901699,0.95105652,-0.95105652,0.30901699,-5.1961524,3)"
         xlink:href="#s" />
      <use
         height="100%"
         width="100%"
         y="0"
         x="0"
         id="use3390"
         transform="matrix(0.30901699,0.95105652,-0.95105652,0.30901699,-3,5.1961524)"
         xlink:href="#s" />
    </g>
    <use
       height="100%"
       width="100%"
       y="0"
       x="0"
       id="use3392"
       transform="scale(-1,1)"
       xlink:href="#l" />
    <text
       id="text4271"
       y="1.9742837"
       x="-4.5694985"
       style="font-style:normal;font-variant:normal;font-weight:normal;font-stretch:normal;font-size:6px;line-height:125%;font-family:'Liberation Sans',Arial;-inkscape-font-specification:'Arial, Normal';text-align:start;letter-spacing:0px;word-spacing:0px;writing-mode:lr-tb;text-anchor:start;fill:#000000;fill-opacity:1;stroke:none;stroke-width:1px;stroke-linecap:butt;stroke-linejoin:miter;stroke-opacity:1"
       xml:space="preserve"><tspan
         style="font-style:italic;font-variant:normal;font-weight:bold;font-stretch:normal;font-size:6px;line-height:125%;font-family:'Liberation Sans',Arial;-inkscape-font-specification:'Liberation Sans Bold Italic';text-align:start;writing-mode:lr-tb;text-anchor:start;fill:#e2e3db"
         y="1.9742837"
         x="-4.5694985"
         id="tspan4273">CB</tspan></text>
  </g>
</svg>
